<svg width="46" height="46" viewBox="0 0 46 46" fill="none" xmlns="http://www.w3.org/2000/svg">
<path d="M36.3333 3H9.66669C5.98478 3 3 5.98478 3 9.66669V36.3333C3 40.0152 5.98478 43 9.66669 43H36.3333C40.0152 43 43 40.0152 43 36.3333V9.66669C43 5.98478 40.0152 3 36.3333 3Z" fill="url(#paint0_linear_2545_229)" fill-opacity="0.2"/>
<rect x="1" y="1" width="44" height="44" rx="6.6" fill="url(#paint1_linear_2545_229)"/>
<rect x="0.5" y="0.5" width="45" height="45" rx="7.1" stroke="white" stroke-opacity="0.4"/>
<path fill-rule="evenodd" clip-rule="evenodd" d="M17.6965 11.035L28.4129 11.035C28.8902 11.035 29.2772 11.4219 29.2772 11.8992L29.2772 17.9488C29.2772 18.4261 28.8902 18.8131 28.4129 18.8131L17.6965 18.8131C17.2192 18.8131 16.8323 18.4261 16.8323 17.9488L16.8323 11.8992C16.8323 11.4219 17.2192 11.035 17.6965 11.035Z" stroke="#133B84" stroke-width="1.5"/>
<path fill-rule="evenodd" clip-rule="evenodd" d="M7.8254 29.7796L18.5418 29.7796C19.0191 29.7796 19.4061 30.1666 19.4061 30.6439L19.4061 34.1008C19.4061 34.5781 19.0191 34.965 18.5418 34.965L7.8254 34.965C7.3481 34.965 6.96117 34.5781 6.96117 34.1008L6.96117 30.6439C6.96117 30.1666 7.3481 29.7796 7.8254 29.7796Z" stroke="#133B84" stroke-width="1.5"/>
<path fill-rule="evenodd" clip-rule="evenodd" d="M27.4563 29.7796L38.1727 29.7796C38.65 29.7796 39.0369 30.1666 39.0369 30.6439L39.0369 34.1008C39.0369 34.5781 38.65 34.965 38.1727 34.965L27.4563 34.965C26.979 34.965 26.592 34.5781 26.592 34.1008L26.592 30.6439C26.592 30.1666 26.979 29.7796 27.4563 29.7796Z" stroke="#133B84" stroke-width="1.5"/>
<path d="M23.123 18.7839V24.1727" stroke="#133B84" stroke-width="1.5"/>
<path d="M32.8938 30.358V25.9011C32.8938 24.9465 32.1199 24.1726 31.1653 24.1726H14.8339C13.8793 24.1726 13.1055 24.9465 13.1055 25.9011V30.358" stroke="#133B84" stroke-width="1.5"/>
<path d="M36.3333 3H9.66669C5.98478 3 3 5.98478 3 9.66669V36.3333C3 40.0152 5.98478 43 9.66669 43H36.3333C40.0152 43 43 40.0152 43 36.3333V9.66669C43 5.98478 40.0152 3 36.3333 3Z" fill="url(#paint2_linear_2545_229)" fill-opacity="0.2"/>
<rect x="1" y="1" width="44" height="44" rx="6.6" fill="url(#paint3_linear_2545_229)"/>
<rect x="0.5" y="0.5" width="45" height="45" rx="7.1" stroke="white" stroke-opacity="0.4"/>
<path d="M28.8584 9.33105C31.1537 9.01111 33.5667 9.64595 35.3975 11.0674C37.351 12.5837 38.5948 14.9589 38.7314 17.4238C38.8852 20.1993 38.0577 22.6794 36.5977 24.9697C35.6214 26.5009 33.6915 28.7419 31.333 30.8936C28.9732 33.0463 26.127 35.1627 23.3008 36.4014L23 36.5332L22.6992 36.4014C19.8729 35.1627 17.0267 33.0462 14.667 30.8936C12.3085 28.742 10.3784 26.5013 9.40234 24.9697C7.94279 22.679 7.11417 20.1987 7.26855 17.4229C7.40529 14.9578 8.65026 12.584 10.6035 11.0674L10.9775 10.7939C12.8829 9.47865 15.3226 8.96024 17.5996 9.4082L17.5986 9.40918C18.8937 9.66364 20.0502 10.4994 20.9971 11.4688C21.7748 12.265 22.4534 13.1955 23 14.0889C23.5465 13.1955 24.2252 12.265 25.0029 11.4688C25.9498 10.4995 27.1062 9.66271 28.4014 9.4082L28.8584 9.33105Z" stroke="#133B84" stroke-width="1.5"/>
<path d="M15.584 23.8423H19.1509C19.2243 23.8423 19.2902 23.7974 19.317 23.7291L21.0735 19.2646C21.1329 19.1137 21.3465 19.1137 21.4059 19.2646L25.008 28.4199C25.0674 28.5709 25.2809 28.5709 25.3403 28.4199L27.0968 23.9555C27.1237 23.8872 27.1896 23.8423 27.263 23.8423H30.584" stroke="#133B84" stroke-width="1.5" stroke-linecap="round"/>
<defs>
<linearGradient id="paint0_linear_2545_229" x1="43" y1="6.32943" x2="3" y2="39.6706" gradientUnits="userSpaceOnUse">
<stop stop-color="#2F77FB"/>
<stop offset="1" stop-color="#A6C5FF"/>
</linearGradient>
<linearGradient id="paint1_linear_2545_229" x1="6.37769" y1="1" x2="39.6223" y2="45" gradientUnits="userSpaceOnUse">
<stop stop-color="#ECF3FF"/>
<stop offset="1" stop-color="#76A7FF"/>
</linearGradient>
<linearGradient id="paint2_linear_2545_229" x1="43" y1="6.32943" x2="3" y2="39.6706" gradientUnits="userSpaceOnUse">
<stop stop-color="#2F77FB"/>
<stop offset="1" stop-color="#A6C5FF"/>
</linearGradient>
<linearGradient id="paint3_linear_2545_229" x1="6.37769" y1="1" x2="39.6223" y2="45" gradientUnits="userSpaceOnUse">
<stop stop-color="#ECF3FF"/>
<stop offset="1" stop-color="#76A7FF"/>
</linearGradient>
</defs>
</svg>
